<svg width="24" height="24" viewBox="0 0 24 24" fill="none" xmlns="http://www.w3.org/2000/svg">
<path d="M12 22.75C9.87386 22.75 7.79545 22.1195 6.02762 20.9383C4.2598 19.7571 2.88194 18.0782 2.0683 16.1139C1.25466 14.1495 1.04177 11.9881 1.45656 9.90278C1.87135 7.81749 2.89519 5.90202 4.39861 4.39861C5.90202 2.89519 7.81749 1.87135 9.90278 1.45656C11.9881 1.04177 14.1495 1.25466 16.1139 2.0683C18.0782 2.88194 19.7571 4.2598 20.9383 6.02762C22.1195 7.79545 22.75 9.87386 22.75 12C22.7476 14.8504 21.6143 17.5833 19.5988 19.5988C17.5833 21.6143 14.8504 22.7476 12 22.75ZM12 2.75C10.1705 2.75 8.38213 3.29251 6.86098 4.30891C5.33983 5.32531 4.15423 6.76997 3.45412 8.46018C2.75401 10.1504 2.57083 12.0103 2.92774 13.8046C3.28465 15.5989 4.16563 17.2471 5.45927 18.5407C6.7529 19.8344 8.40109 20.7154 10.1954 21.0723C11.9897 21.4292 13.8496 21.246 15.5398 20.5459C17.23 19.8458 18.6747 18.6602 19.6911 17.139C20.7075 15.6179 21.25 13.8295 21.25 12C21.2471 9.54765 20.2716 7.19656 18.5375 5.46248C16.8034 3.7284 14.4524 2.75292 12 2.75Z" fill="#22D9B8"/>
<path d="M10.5811 15.581C10.4826 15.5809 10.3851 15.5615 10.2942 15.5237C10.2032 15.486 10.1206 15.4307 10.0511 15.361L7.22107 12.53C7.08859 12.3878 7.01646 12.1998 7.01989 12.0055C7.02332 11.8112 7.10203 11.6258 7.23945 11.4884C7.37686 11.3509 7.56224 11.2722 7.75654 11.2688C7.95085 11.2654 8.13889 11.3375 8.28107 11.47L10.5811 13.77L15.7211 8.63098C15.8632 8.4985 16.0513 8.42638 16.2456 8.4298C16.4399 8.43323 16.6253 8.51194 16.7627 8.64936C16.9001 8.78677 16.9788 8.97216 16.9822 9.16646C16.9857 9.36076 16.9135 9.5488 16.7811 9.69098L11.1111 15.361C11.0415 15.4307 10.9589 15.486 10.868 15.5237C10.777 15.5615 10.6795 15.5809 10.5811 15.581Z" fill="#22D9B8"/>
</svg>
